<svg width="18" height="18" viewBox="0 0 18 18" fill="none" xmlns="http://www.w3.org/2000/svg">
<path d="M12.0648 0.466797H5.73859C2.82751 0.466797 0.466797 2.82751 0.466797 5.73859V12.0648C0.466797 14.9758 2.82751 17.3365 5.73859 17.3365H12.0648C14.9758 17.3365 17.3365 14.9758 17.3365 12.0648V5.73859C17.3365 2.82751 14.9758 0.466797 12.0648 0.466797ZM15.755 12.0648C15.755 14.0997 14.0997 15.755 12.0648 15.755H5.73859C3.70368 15.755 2.04834 14.0997 2.04834 12.0648V5.73859C2.04834 3.70368 3.70368 2.04834 5.73859 2.04834H12.0648C14.0997 2.04834 15.755 3.70368 15.755 5.73859V12.0648Z" fill="black"/>
</svg>
